# xmcd
#
# Track frame offsets: 
#        182
#        22457
#        39010
#        65432
#        101657
#        122575
#        143962
#        159835
#
# Disc length: 2559 seconds
#
# Revision: 143
# Processed by: cddbd v1.5.2PL0 Copyright (c) Steve Scherf et al.
# Submitted via: ExactAudioCopyFreeDBPlugin 1.0
#
DISCID=6509fd08
DTITLE=Led Zeppelin - IV
DYEAR=1971
DGENRE=Rock
TTITLE0=Black Dog
TTITLE1=Rock and Roll
TTITLE2=The Battle of Evermore
TTITLE3=Stairway to Heaven
TTITLE4=Misty Mountain Hop
TTITLE5=Four Sticks
TTITLE6=Going to California
TTITLE7=When the Levee Breaks
EXTD=
EXTT0=
EXTT1=
EXTT2=
EXTT3=
EXTT4=
EXTT5=
EXTT6=
EXTT7=
PLAYORDER=
